<?xml version="1.0" encoding="UTF-8"?>
<svg version="1.1" xmlns="http://www.w3.org/2000/svg" width="1024" height="1024">
<path d="M0 0 C337.92 0 675.84 0 1024 0 C1024 337.92 1024 675.84 1024 1024 C686.08 1024 348.16 1024 0 1024 C0 686.08 0 348.16 0 0 Z " fill="#F8F8F8" transform="translate(0,0)"/>
<path d="M0 0 C1.15856644 -0.00384115 2.31713288 -0.00768229 3.51080739 -0.01163983 C4.77421126 -0.01077335 6.03761513 -0.00990687 7.33930397 -0.00901413 C8.70251379 -0.01159969 10.06572286 -0.01461339 11.42893088 -0.01801753 C15.16981129 -0.02606879 18.91067249 -0.02787606 22.65156054 -0.028615 C26.68861386 -0.0304689 30.72565728 -0.0380181 34.76270485 -0.04475021 C43.58958726 -0.05832233 52.41646512 -0.06435695 61.24335623 -0.06876087 C66.75960924 -0.07152608 72.27586051 -0.07576402 77.79211235 -0.08026505 C93.07724268 -0.09245792 108.36237162 -0.10275611 123.64750671 -0.10614014 C124.62551793 -0.1063597 125.60352915 -0.10657927 126.61117706 -0.10680549 C127.59148385 -0.10702377 128.57179063 -0.10724204 129.58180368 -0.10746694 C131.56815998 -0.1079104 133.55451628 -0.10835696 135.54087257 -0.10880661 C136.5261667 -0.10902804 137.51146083 -0.10924947 138.52661236 -0.10947761 C154.47483032 -0.11342157 170.42300247 -0.13086325 186.37120275 -0.15416613 C202.76117164 -0.17792026 219.15111759 -0.19034389 235.54110396 -0.19150805 C244.73679577 -0.19242271 253.93242794 -0.19812185 263.12810326 -0.21632767 C270.96237967 -0.23178378 278.79657803 -0.2368169 286.63086681 -0.22858956 C290.62272476 -0.22470202 294.61442581 -0.2255189 298.60626411 -0.23964691 C333.36713126 -0.35564609 361.93738444 5.65295883 387.87143898 30.50642776 C411.65664617 55.37871024 417.76502604 84.79694724 417.63901711 118.14143753 C417.64445108 120.58643889 417.65158082 123.03143698 417.66025734 125.47642899 C417.67647234 131.37701444 417.67428119 137.27741198 417.66260678 143.17799181 C417.6535044 147.98095291 417.6523775 152.78385713 417.65670204 157.58682442 C417.65731497 158.27524455 417.65792791 158.96366469 417.65855941 159.67294605 C417.65983855 161.07225349 417.66113541 162.47156091 417.66244978 163.87086832 C417.67380463 176.93415253 417.66082202 189.99732371 417.63924831 203.06058937 C417.62137795 214.22642986 417.62449082 225.39210393 417.64292336 236.55794144 C417.66441385 249.58194916 417.67271065 262.60585834 417.6604743 275.62988132 C417.65920034 277.02320316 417.65794286 278.41652501 417.65670204 279.80984688 C417.65577639 280.83767447 417.65577639 280.83767447 417.65483204 281.88626625 C417.65140385 286.67409703 417.65715214 291.46186435 417.66662025 296.24968529 C417.67912445 302.71370774 417.67000231 309.17749207 417.64704323 315.64148712 C417.64180047 317.99913964 417.64319276 320.35681882 417.65209389 322.71446037 C417.76533711 355.78379945 409.34237877 384.18655461 386.12143898 408.50642776 C381.51268077 412.90826213 376.39113143 416.56619799 371.12143898 420.13142776 C370.35315773 420.6560762 369.58487648 421.18072464 368.79331398 421.72127151 C345.83101981 436.44369482 320.85302433 437.74507592 294.33388877 437.65432644 C290.35973535 437.64515976 286.38564816 437.65930223 282.41150856 437.67024612 C274.65437553 437.68791281 266.89739843 437.68424504 259.14025961 437.67259556 C252.82985662 437.6635157 246.51949694 437.66235677 240.20908928 437.66669083 C238.85547176 437.66761022 238.85547176 437.66761022 237.47450844 437.6685482 C235.64058627 437.66982725 233.80666412 437.67112411 231.97274198 437.67243856 C214.82872514 437.68380929 197.68479426 437.67078529 180.54079153 437.6492371 C165.86629642 437.63136322 151.19192791 437.63447944 136.51743507 437.65291214 C119.42641373 437.67437057 102.33546742 437.68271736 85.24443448 437.67046309 C83.41834205 437.66918904 81.5922496 437.66793156 79.76615715 437.66669083 C78.86796155 437.66607372 77.96976596 437.66545662 77.04435232 437.66482082 C70.74872886 437.66138326 64.45315347 437.66716154 58.15753746 437.67660904 C50.47513385 437.68788561 42.79289348 437.68467081 35.11050831 437.66348606 C31.19928349 437.65305206 27.28832977 437.64872118 23.37710762 437.66208267 C4.7749389 437.72040648 -13.28188151 437.56151311 -30.62856102 429.94392776 C-31.31990135 429.64768509 -32.01124168 429.35144241 -32.72353172 429.04622269 C-59.62077201 417.08674981 -78.49098146 395.30893961 -89.51918602 368.35799026 C-94.43918109 353.86436048 -94.31310893 339.8096216 -94.28261375 324.66926956 C-94.28832375 322.10368427 -94.29529043 319.53810152 -94.30341148 316.97252274 C-94.31943722 310.75497395 -94.32145745 304.53756216 -94.31619858 298.31999906 C-94.31213916 293.26040015 -94.31362134 288.20083096 -94.31894684 283.14123344 C-94.31969526 282.41811859 -94.32044368 281.69500373 -94.32121478 280.9499763 C-94.32274644 279.4804442 -94.32428479 278.01091211 -94.32582975 276.54138003 C-94.33952391 262.79338896 -94.33413908 249.04545497 -94.32264454 235.29746524 C-94.31271747 222.75502199 -94.3256492 210.21272636 -94.34957873 197.67030587 C-94.37403618 184.75259351 -94.38356121 171.83494972 -94.376926 158.91721469 C-94.37344823 151.6805837 -94.37556969 144.4440661 -94.39317703 137.20745277 C-94.40953943 130.39878132 -94.40461456 123.59039468 -94.38587189 116.78173065 C-94.38220483 114.29423384 -94.38523893 111.80671593 -94.39575768 109.31923866 C-94.46494411 91.59395243 -93.6794857 75.9010027 -84.87856102 60.13142776 C-84.42481102 58.99705276 -83.97106102 57.86267776 -83.50356102 56.69392776 C-72.38402428 32.31648183 -50.50618732 14.63895578 -25.87856102 5.13142776 C-17.43809026 2.20240255 -8.96688486 0.01120425 0 0 Z " fill="#4187F4" transform="translate(350.87856101989746,205.86857223510742)"/>
<path d="M0 0 C1.27473679 -0.00511093 2.54947357 -0.01022186 3.86283875 -0.01548767 C7.32798982 -0.02876198 10.79303105 -0.0294692 14.25820255 -0.02692437 C17.16766871 -0.02584635 20.07711339 -0.03075927 22.98657489 -0.03552979 C29.86102105 -0.04658585 36.73541255 -0.04708502 43.60986328 -0.04101562 C50.66205458 -0.03498422 57.71404595 -0.04727459 64.76620317 -0.06858569 C70.85579377 -0.08629993 76.9453213 -0.09218754 83.03493667 -0.08894795 C86.65650744 -0.08714989 90.27793569 -0.08962087 93.89948273 -0.10366249 C122.58805581 -0.20554136 122.58805581 -0.20554136 134.78027344 3.2746582 C135.52992371 3.46663788 136.27957397 3.65861755 137.05194092 3.85641479 C150.53291199 7.48242878 163.25683025 14.11888272 173.78027344 23.2746582 C174.63878906 23.97848633 175.49730469 24.68231445 176.38183594 25.4074707 C193.41184563 39.94294376 207.16254589 62.33666058 209.61254883 84.88378906 C211.89825273 117.46588261 206.14667409 144.88122798 184.84277344 170.1496582 C168.11964792 187.9034336 143.0499633 200.58289894 118.42104912 201.34794235 C115.90248702 201.35941487 113.38628682 201.33861759 110.86791992 201.30541992 C108.90433555 201.28932463 106.94074789 201.2736264 104.97715759 201.25827026 C103.94766432 201.24873196 102.91817104 201.23919365 101.857481 201.2293663 C95.16456633 201.17713461 88.47137459 201.18358597 81.77828884 201.17800713 C75.93437943 201.16983103 70.09181144 201.14240293 64.24829102 201.07250977 C29.5885971 199.74086291 29.5885971 199.74086291 -2.04260254 211.90376282 C-5.71141769 214.21394896 -9.6525586 215.92565608 -13.59472656 217.7121582 C-15.10384545 218.42685411 -16.61181235 219.14399201 -18.11816406 219.86450195 C-24.46703037 222.87396253 -30.84266821 225.8255199 -37.21972656 228.7746582 C-38.93168213 229.56827759 -38.93168213 229.56827759 -40.67822266 230.37792969 C-41.74379395 230.8697876 -42.80936523 231.36164551 -43.90722656 231.8684082 C-44.85984375 232.30862305 -45.81246094 232.74883789 -46.79394531 233.20239258 C-49.21972656 234.2746582 -49.21972656 234.2746582 -52.21972656 235.2746582 C-52.39246956 219.97730585 -52.39246956 219.97730585 -51.71972656 213.5246582 C-50.10273194 201.30712417 -50.10273194 201.30712417 -54.21972656 190.2746582 C-57.09458773 187.45238596 -60.12628692 184.85336564 -63.21972656 182.2746582 C-84.92221117 164.12724727 -98.55252605 139.28441316 -101.90722656 111.1496582 C-103.86642675 86.08822241 -97.87560629 60.8366852 -82.21972656 40.8371582 C-80.89815121 39.30609635 -79.56490036 37.78502878 -78.21972656 36.2746582 C-77.56875 35.4702832 -76.91777344 34.6659082 -76.24707031 33.8371582 C-57.57507179 11.50056184 -28.60461807 -0.06002837 0 0 Z " fill="#FCFCFC" transform="translate(458.2197265625,302.725341796875)"/>
<path d="M0 0 C1.92235474 -0.00744736 1.92235474 -0.00744736 3.88354492 -0.01504517 C7.3590119 -0.028004 10.83445973 -0.03458069 14.30994701 -0.03905582 C16.49230126 -0.04201219 18.67465056 -0.04612132 20.85700226 -0.05056 C27.71753591 -0.06418836 34.57805789 -0.07387895 41.43860412 -0.07776189 C49.29878981 -0.08223818 57.15880124 -0.09978589 65.01893401 -0.12876248 C71.13661214 -0.15051623 77.2542417 -0.16047332 83.37195802 -0.16180301 C87.00699006 -0.16284084 90.64185728 -0.16852723 94.27684784 -0.18662262 C112.71676506 -0.27324155 130.11754268 0.11968071 147.74316406 6.16113281 C148.608125 6.45528076 149.47308594 6.74942871 150.36425781 7.05249023 C184.64360771 19.26110791 211.82522969 44.28762995 227.50439453 76.9921875 C230.03876143 82.55152466 232.09043909 88.22720145 233.85986328 94.07226562 C234.26629902 95.41284549 234.68850505 96.74880232 235.13037109 98.078125 C238.79717783 109.30209559 238.8857375 120.65627275 238.93066406 132.34863281 C238.94006012 133.49859238 238.94006012 133.49859238 238.949646 134.67178345 C239.00407494 145.22296157 237.98245793 154.89405774 235.49316406 165.16113281 C235.30520264 165.97155029 235.11724121 166.78196777 234.92358398 167.61694336 C227.16081531 199.54989279 206.68819494 228.10803374 178.80566406 245.51269531 C159.33886995 257.16694519 136.81533238 265.54682593 113.94726562 265.16015625 C112.01353556 265.13739482 110.07979896 265.11518352 108.14605713 265.09344482 C107.12723701 265.08066246 106.1084169 265.0678801 105.05872345 265.05471039 C98.44008807 264.9834099 91.82098757 264.97788615 85.20203018 264.96085739 C79.42383217 264.94233478 73.64763184 264.901072 67.87011719 264.80810547 C31.72490541 263.97509387 31.72490541 263.97509387 -0.98669434 277.58959961 C-4.59393537 279.83903633 -8.37050202 281.51874104 -12.27246094 283.18457031 C-13.52974198 283.74645122 -14.78611868 284.31036086 -16.04150391 284.87646484 C-16.64750427 285.14702698 -17.25350464 285.41758911 -17.87786865 285.6963501 C-31.72420712 291.88481107 -45.40520646 298.38200046 -59.02749634 305.04736328 C-63.88692569 307.42142548 -68.75215523 309.78375882 -73.64746094 312.08300781 C-74.49598633 312.48358398 -75.34451172 312.88416016 -76.21875 313.296875 C-79.72897523 314.62276033 -82.00872161 314.42045397 -85.50683594 313.16113281 C-89.15699628 310.15988986 -92.14073996 307.04809227 -92.75268555 302.22241211 C-92.63912968 294.25830095 -91.96670181 286.34198872 -91.2800293 278.41040039 C-91.06893267 275.96896882 -90.86453776 273.52704418 -90.66113281 271.08496094 C-90.52806051 269.51266215 -90.39461006 267.94039531 -90.26074219 266.36816406 C-90.20028214 265.64820755 -90.13982208 264.92825104 -90.07752991 264.18647766 C-89.69659162 259.81779048 -89.1481762 255.49846729 -88.50683594 251.16113281 C-87.77801986 246.21618775 -87.24785382 242.05591429 -90.11474609 237.74121094 C-92.41026018 235.3165839 -94.80794967 233.11111656 -97.31933594 230.91113281 C-99.0802532 229.2597229 -100.83417375 227.60082097 -102.58105469 225.93457031 C-103.85795166 224.72172363 -103.85795166 224.72172363 -105.16064453 223.484375 C-128.49495974 200.37830387 -139.52641068 164.61452741 -139.69433594 132.47363281 C-139.58462258 107.3907873 -132.33339768 80.62241759 -117.50683594 60.16113281 C-116.45689453 58.68773437 -116.45689453 58.68773437 -115.38574219 57.18457031 C-94.2499453 28.24647752 -65.27807775 9.19255108 -30.24121094 1.70410156 C-20.2049205 0.24485013 -10.12622059 0.00959659 0 0 Z M-30.50683594 35.16113281 C-31.61648429 35.45069194 -32.72613264 35.74025106 -33.8694067 36.03858471 C-56.82869629 42.21238251 -78.66912832 58.74291858 -90.82324219 79.14550781 C-91.37882812 80.14066406 -91.93441406 81.13582031 -92.50683594 82.16113281 C-92.99579346 83.01868164 -92.99579346 83.01868164 -93.49462891 83.89355469 C-106.506913 106.99662368 -109.73033286 132.88205927 -103.25683594 158.66113281 C-95.97085056 183.04393537 -82.72171232 201.91632723 -63.17480469 218.09082031 C-62.459375 218.69152344 -61.74394531 219.29222656 -61.00683594 219.91113281 C-60.37777344 220.42160156 -59.74871094 220.93207031 -59.10058594 221.45800781 C-54.85506131 225.99489198 -55.27766535 231.15126957 -55.37011719 236.99707031 C-55.53053744 240.70965328 -55.89898055 244.37663258 -56.28417969 248.07128906 C-56.74177698 254.42145498 -56.57868588 260.79842126 -56.50683594 267.16113281 C-52.74626471 265.6983758 -49.09372919 264.07275705 -45.44042969 262.36035156 C-44.24571045 261.80138184 -43.05099121 261.24241211 -41.82006836 260.66650391 C-41.18845795 260.37024109 -40.55684753 260.07397827 -39.90609741 259.76873779 C-37.23812187 258.51740443 -34.56865172 257.26927537 -31.89924622 256.02099609 C-30.51570546 255.37400402 -29.13223244 254.72686708 -27.74882507 254.07958984 C-21.16819279 251.00096291 -14.58257266 247.93313435 -7.99368286 244.8722229 C-6.23987867 244.05729484 -4.48651058 243.24142844 -2.7331543 242.42553711 C-1.65171143 241.92320557 -0.57026855 241.42087402 0.54394531 240.90332031 C1.94640503 240.25145752 1.94640503 240.25145752 3.37719727 239.58642578 C4.40546631 239.1160791 5.43373535 238.64573242 6.49316406 238.16113281 C7.44278471 237.66805696 7.44278471 237.66805696 8.41158962 237.16501999 C14.27575228 234.26603801 19.09136958 233.5874997 25.58007812 233.64697266 C26.54562119 233.63984756 27.51116425 233.63272247 28.50596619 233.62538147 C31.67378615 233.60620373 34.84093084 233.61436312 38.00878906 233.62207031 C40.2292375 233.61215199 42.44967772 233.60020645 44.67010498 233.58633423 C50.50449121 233.55403466 56.33868992 233.54358719 62.17315674 233.53948975 C71.49547246 233.53072383 80.81763441 233.49492473 90.13982391 233.44731522 C93.37731318 233.43483618 96.61460364 233.43547928 99.85211182 233.43759155 C113.23189199 233.4115527 125.86301161 233.04638046 138.49316406 228.16113281 C139.60175781 227.76152344 140.71035156 227.36191406 141.85253906 226.95019531 C167.74461332 217.37610951 186.67152502 199.52446185 198.28613281 174.39550781 C204.216516 160.82968966 205.74145488 148.02685264 205.80566406 133.34863281 C205.81130371 132.10839355 205.81694336 130.8681543 205.82275391 129.59033203 C205.76687601 122.53740502 205.23203786 115.99908529 203.49316406 109.16113281 C203.25182739 108.16521118 203.25182739 108.16521118 203.00561523 107.14916992 C196.77728361 82.72796626 180.57183602 60.31995844 158.93066406 47.28613281 C140.9878262 36.87792926 122.88622093 31.84289597 102.12817383 31.88647461 C100.85007843 31.88136368 99.57198303 31.87625275 98.25515747 31.87098694 C94.78606778 31.85773104 91.31708791 31.85700299 87.84797788 31.85955024 C84.93578771 31.86062891 82.02361897 31.85571402 79.11143345 31.85094482 C72.2336961 31.83989651 65.35601339 31.83938605 58.47827148 31.84545898 C51.41749921 31.85149824 44.35692624 31.83917826 37.29618794 31.81788892 C31.20066369 31.80019562 25.10520245 31.79428357 19.00965351 31.79752666 C15.38369017 31.79932702 11.75786912 31.79682936 8.1319294 31.78281212 C4.0836736 31.76774387 0.03581629 31.77727099 -4.01245117 31.78881836 C-5.19050827 31.78117462 -6.36856537 31.77353088 -7.58232117 31.76565552 C-15.58205563 31.81577349 -22.7951707 33.07861293 -30.50683594 35.16113281 Z " fill="#5285F3" transform="translate(462.5068359375,270.8388671875)"/>
<path d="M0 0 C1.92235474 -0.00744736 1.92235474 -0.00744736 3.88354492 -0.01504517 C7.3590119 -0.028004 10.83445973 -0.03458069 14.30994701 -0.03905582 C16.49230126 -0.04201219 18.67465056 -0.04612132 20.85700226 -0.05056 C27.71753591 -0.06418836 34.57805789 -0.07387895 41.43860412 -0.07776189 C49.29878981 -0.08223818 57.15880124 -0.09978589 65.01893401 -0.12876248 C71.13661214 -0.15051623 77.2542417 -0.16047332 83.37195802 -0.16180301 C87.00699006 -0.16284084 90.64185728 -0.16852723 94.27684784 -0.18662262 C112.71676506 -0.27324155 130.11754268 0.11968071 147.74316406 6.16113281 C148.608125 6.45528076 149.47308594 6.74942871 150.36425781 7.05249023 C184.64360771 19.26110791 211.82522969 44.28762995 227.50439453 76.9921875 C230.03876143 82.55152466 232.09043909 88.22720145 233.85986328 94.07226562 C234.26629902 95.41284549 234.68850505 96.74880232 235.13037109 98.078125 C238.79717783 109.30209559 238.8857375 120.65627275 238.93066406 132.34863281 C238.94006012 133.49859238 238.94006012 133.49859238 238.949646 134.67178345 C239.00407494 145.22296157 237.98245793 154.89405774 235.49316406 165.16113281 C235.30520264 165.97155029 235.11724121 166.78196777 234.92358398 167.61694336 C227.16081531 199.54989279 206.68819494 228.10803374 178.80566406 245.51269531 C159.33886995 257.16694519 136.81533238 265.54682593 113.94726562 265.16015625 C112.01353556 265.13739482 110.07979896 265.11518352 108.14605713 265.09344482 C107.12723701 265.08066246 106.1084169 265.0678801 105.05872345 265.05471039 C98.44008807 264.9834099 91.82098757 264.97788615 85.20203018 264.96085739 C79.42383217 264.94233478 73.64763184 264.901072 67.87011719 264.80810547 C31.72490541 263.97509387 31.72490541 263.97509387 -0.98669434 277.58959961 C-4.59393537 279.83903633 -8.37050202 281.51874104 -12.27246094 283.18457031 C-13.52974198 283.74645122 -14.78611868 284.31036086 -16.04150391 284.87646484 C-16.64750427 285.14702698 -17.25350464 285.41758911 -17.87786865 285.6963501 C-31.72420712 291.88481107 -45.40520646 298.38200046 -59.02749634 305.04736328 C-63.88692569 307.42142548 -68.75215523 309.78375882 -73.64746094 312.08300781 C-74.49598633 312.48358398 -75.34451172 312.88416016 -76.21875 313.296875 C-79.72897523 314.62276033 -82.00872161 314.42045397 -85.50683594 313.16113281 C-89.15699628 310.15988986 -92.14073996 307.04809227 -92.75268555 302.22241211 C-92.63912968 294.25830095 -91.96670181 286.34198872 -91.2800293 278.41040039 C-91.06893267 275.96896882 -90.86453776 273.52704418 -90.66113281 271.08496094 C-90.52806051 269.51266215 -90.39461006 267.94039531 -90.26074219 266.36816406 C-90.20028214 265.64820755 -90.13982208 264.92825104 -90.07752991 264.18647766 C-89.69659162 259.81779048 -89.1481762 255.49846729 -88.50683594 251.16113281 C-87.77801986 246.21618775 -87.24785382 242.05591429 -90.11474609 237.74121094 C-92.41026018 235.3165839 -94.80794967 233.11111656 -97.31933594 230.91113281 C-99.0802532 229.2597229 -100.83417375 227.60082097 -102.58105469 225.93457031 C-103.85795166 224.72172363 -103.85795166 224.72172363 -105.16064453 223.484375 C-128.49495974 200.37830387 -139.52641068 164.61452741 -139.69433594 132.47363281 C-139.58462258 107.3907873 -132.33339768 80.62241759 -117.50683594 60.16113281 C-116.45689453 58.68773437 -116.45689453 58.68773437 -115.38574219 57.18457031 C-94.2499453 28.24647752 -65.27807775 9.19255108 -30.24121094 1.70410156 C-20.2049205 0.24485013 -10.12622059 0.00959659 0 0 Z M-33.50683594 16.16113281 C-34.30924713 16.35306717 -35.11165833 16.54500153 -35.93838501 16.74275208 C-68.74381919 25.05095492 -94.40111596 47.65574787 -111.50683594 76.16113281 C-117.4184082 86.52736083 -120.79671196 97.59759774 -123.50683594 109.16113281 C-123.6944751 109.91620117 -123.88211426 110.67126953 -124.07543945 111.44921875 C-125.69858363 118.56013609 -125.85383887 125.51242145 -125.81933594 132.78613281 C-125.81087646 134.64782104 -125.81087646 134.64782104 -125.80224609 136.54711914 C-125.32143778 172.96239815 -107.41615337 202.19167055 -82.37011719 227.43847656 C-80.65993514 229.01958827 -78.93347463 230.24117893 -77.00683594 231.53613281 C-74.2680736 234.41183327 -74.18134606 234.5736191 -74.26074219 238.25097656 C-74.43804076 245.2046014 -75.09636229 252.13354948 -75.73364258 259.05737305 C-75.94482188 261.35391736 -76.1492143 263.65099042 -76.35253906 265.94824219 C-76.48560836 267.42939745 -76.61905869 268.91051854 -76.75292969 270.39160156 C-76.81338974 271.06781052 -76.87384979 271.74401947 -76.93614197 272.4407196 C-77.33085117 276.70386393 -77.89138678 280.92497484 -78.50683594 285.16113281 C-78.61291208 286.92989079 -78.68055769 288.70175045 -78.69433594 290.47363281 C-78.70851563 291.31539062 -78.72269531 292.15714844 -78.73730469 293.02441406 C-78.70955825 295.37654358 -78.70955825 295.37654358 -76.50683594 297.16113281 C-72.85635825 296.79512792 -69.98621746 295.56954638 -66.75292969 293.89550781 C-65.83181396 293.42483887 -64.91069824 292.95416992 -63.96166992 292.46923828 C-62.96594971 291.95506348 -61.97022949 291.44088867 -60.94433594 290.91113281 C-51.10504731 285.91489345 -41.2165682 281.05762105 -31.13746643 276.56074524 C-25.08636952 273.84253384 -19.1773983 271.0342365 -13.39329147 267.7818861 C13.26952553 252.85006173 36.43288105 250.74448367 66.60925293 251.63647461 C73.1780286 251.81215374 79.74878076 251.86883248 86.31943703 251.93324947 C91.42325127 251.9838665 96.52357423 252.05316385 101.62582397 252.19178772 C118.88052061 252.59315456 134.2025068 249.88952655 150.49316406 244.16113281 C151.51796875 243.8040625 152.54277344 243.44699219 153.59863281 243.07910156 C166.72434969 238.06617595 178.56904885 230.04855999 188.49316406 220.16113281 C189.30785156 219.35289062 190.12253906 218.54464844 190.96191406 217.71191406 C206.86270435 201.68843249 216.52383722 183.85294895 222.49316406 162.16113281 C222.9765625 160.494375 222.9765625 160.494375 223.46972656 158.79394531 C230.58232887 130.0111715 224.77437232 97.257636 209.62451172 71.97119141 C194.03690494 47.03236607 172.02762642 28.93806099 144.18066406 19.34863281 C143.38845459 19.07059814 142.59624512 18.79256348 141.7800293 18.50610352 C123.96309229 12.70372044 105.87897307 12.70622021 87.33840895 12.7581563 C83.70913033 12.76587465 80.07987182 12.75867448 76.45059204 12.7539978 C70.36382897 12.74857641 64.27717596 12.75563721 58.19042969 12.77001953 C51.19774456 12.78635381 44.20532186 12.78103727 37.21264303 12.76454031 C31.15770517 12.75083889 25.10284537 12.74904723 19.04789698 12.75685632 C15.45379702 12.76148383 11.85981961 12.76229591 8.265728 12.75224686 C-12.80563222 12.6443422 -12.80563222 12.6443422 -33.50683594 16.16113281 Z " fill="#F8F9FB" transform="translate(462.5068359375,270.8388671875)"/>
<path d="M0 0 C5.13769025 5.5328972 7.57047673 11.03003035 7.55102539 18.57714844 C7.55091209 20.04822052 7.55091209 20.04822052 7.55079651 21.54901123 C7.54563522 22.60018127 7.54047394 23.65135132 7.53515625 24.734375 C7.5337413 25.81632141 7.53232635 26.89826782 7.53086853 28.01300049 C7.52527318 31.4670285 7.5127215 34.92099159 7.5 38.375 C7.4949844 40.71744698 7.4904216 43.05989498 7.48632812 45.40234375 C7.47530527 51.14325417 7.45804379 56.88411608 7.4375 62.625 C1.8275 62.625 -3.7825 62.625 -9.5625 62.625 C-10.2225 60.645 -10.8825 58.665 -11.5625 56.625 C-12.03558594 56.95113281 -12.50867188 57.27726563 -12.99609375 57.61328125 C-22.54370383 63.92252066 -31.60475781 66.18837953 -43.046875 64.19140625 C-50.16861757 62.21450874 -55.20584489 57.7917553 -59.5625 51.9375 C-61.36828975 45.95582146 -61.83343164 39.9443744 -59.56640625 34.0234375 C-55.22414889 26.66743211 -48.89616829 23.99780662 -41.0234375 21.50390625 C-35.42787097 20.16262959 -29.78130286 20.41107125 -24.0625 20.5 C-22.95390625 20.50902344 -21.8453125 20.51804687 -20.703125 20.52734375 C-17.98935408 20.55073833 -15.27604455 20.58351825 -12.5625 20.625 C-12.954952 15.3917821 -12.954952 15.3917821 -15.875 11.25 C-22.35728964 7.33047603 -30.23213133 8.0594081 -37.5625 8.625 C-40.38882435 9.4170909 -42.87289145 10.38078448 -45.51171875 11.65234375 C-47.52125899 12.60543998 -49.39371642 13.15991097 -51.5625 13.625 C-52.42854534 11.85994565 -53.27998642 10.08771926 -54.125 8.3125 C-54.60066406 7.32636719 -55.07632812 6.34023438 -55.56640625 5.32421875 C-56.5625 2.625 -56.5625 2.625 -55.5625 -0.375 C-53.16326523 -1.5642631 -50.8689957 -2.55913717 -48.375 -3.5 C-47.71435547 -3.76425781 -47.05371094 -4.02851562 -46.37304688 -4.30078125 C-31.68253724 -10.01456288 -12.94020149 -9.66501401 0 0 Z " fill="#182155" transform="translate(520.5625,737.375)"/>
<path d="M0 0 C6.27 0 12.54 0 19 0 C19.33 11.55 19.66 23.1 20 35 C21.65 33.35 23.3 31.7 25 30 C32.00712542 25.08165373 38.58765207 23.99853001 47 25 C54.09916426 26.25158676 59.91218112 28.83318092 65 34 C69.90499214 41.1581472 70.69440222 47.63483685 70.48828125 56.1328125 C70.48120651 57.25066132 70.47413177 58.36851013 70.46684265 59.52023315 C70.43907575 63.05586497 70.37636784 66.58985489 70.3125 70.125 C70.28739438 72.5364353 70.26458521 74.94789567 70.24414062 77.359375 C70.18930668 83.24020639 70.10315538 89.11982579 70 95 C63.4 95 56.8 95 50 95 C49.97421875 91.73738281 49.9484375 88.47476563 49.921875 85.11328125 C49.88344926 81.9492128 49.8382906 78.78530702 49.79248047 75.62133789 C49.7642761 73.42447694 49.74305893 71.22751461 49.72900391 69.03051758 C49.70756751 65.8700777 49.6609122 62.71085604 49.609375 59.55078125 C49.60814636 58.57039383 49.60691772 57.59000641 49.60565186 56.57991028 C49.51209634 52.21221058 49.42202695 49.6831817 47.08691406 45.90307617 C42.87807916 42.06500083 38.70223898 42.67028069 33.20703125 42.71875 C27.94189524 43.18049153 25.547869 45.51665533 21.88574219 49.02612305 C19.1877504 53.28094412 19.39726596 56.95009057 19.390625 61.89453125 C19.37408875 62.84188644 19.35755249 63.78924164 19.34051514 64.76530457 C19.29206109 67.7811025 19.27066977 70.79639626 19.25 73.8125 C19.22183818 75.86135345 19.19191045 77.91018345 19.16015625 79.95898438 C19.08298804 84.97288758 19.04244433 89.98520227 19 95 C12.73 95 6.46 95 0 95 C0 63.65 0 32.3 0 0 Z " fill="#171F54" transform="translate(376,705)"/>
<path d="M0 0 C0.99 1.485 0.99 1.485 2 3 C-0.64 7.29 -3.28 11.58 -6 16 C-8.44140625 14.73046875 -10.8828125 13.4609375 -13.32421875 12.19140625 C-20.57343331 8.96365378 -30.0545059 8.66768534 -37.66796875 10.71875 C-39.90021641 11.67158549 -41.92440018 12.74469712 -44 14 C-44.63550781 14.33902344 -45.27101563 14.67804687 -45.92578125 15.02734375 C-52.24554864 18.83003034 -54.74117766 25.22353299 -57 32 C-57.93297981 41.63569317 -56.68810745 52.4319861 -50.875 60.5 C-43.69298743 66.74522832 -35.80056068 69.35757709 -26.4140625 69.2890625 C-18.96911142 68.65871195 -11.91100116 66.60477546 -6 62 C-5.34 62 -4.68 62 -4 62 C-1.69 66.95 0.62 71.9 3 77 C-1.00558569 80.20446855 -2.84333747 81.57981994 -7.375 83.125 C-8.26960938 83.43695312 -9.16421875 83.74890625 -10.0859375 84.0703125 C-11.04757812 84.37710938 -12.00921875 84.68390625 -13 85 C-14.11117187 85.36351562 -15.22234375 85.72703125 -16.3671875 86.1015625 C-30.28705188 89.5441096 -45.29796237 86.86773306 -57.6953125 80.0390625 C-66.93019685 74.34094237 -71.91443039 66.92592485 -76 57 C-76.37640625 56.11183594 -76.7528125 55.22367188 -77.140625 54.30859375 C-78.3622574 49.60530902 -78.32884981 45.08954305 -78.3125 40.25 C-78.32861328 39.3115625 -78.34472656 38.373125 -78.36132812 37.40625 C-78.36991533 24.97197987 -74.24325639 15.06024502 -66 5.73828125 C-48.6087308 -11.0455723 -20.0961848 -12.86286747 0 0 Z " fill="#172055" transform="translate(362,715)"/>
<path d="M0 0 C6.27 0 12.54 0 19 0 C19 5.94 19 11.88 19 18 C25.6 18 32.2 18 39 18 C39 22.95 39 27.9 39 33 C32.4 33 25.8 33 19 33 C19.07404901 37.76977754 19.15691368 42.53769546 19.26245117 47.30664062 C19.29566835 48.92828686 19.32371035 50.55004781 19.34643555 52.171875 C19.38004155 54.50570477 19.4323576 56.83848635 19.48828125 59.171875 C19.49467117 59.89493835 19.5010611 60.61800171 19.50764465 61.36297607 C19.62714112 65.47054164 19.96441317 68.10095251 23 71 C25.3334859 71.5580875 25.3334859 71.5580875 27.875 71.375 C28.71804688 71.36210938 29.56109375 71.34921875 30.4296875 71.3359375 C33.21708566 70.9716271 35.44295582 70.14562911 38 69 C38.70088156 70.74468372 39.38524009 72.49601161 40.0625 74.25 C40.44535156 75.22453125 40.82820312 76.1990625 41.22265625 77.203125 C42.01780193 80.06405117 42.25386037 81.33106863 41 84 C32.54316046 88.47715035 22.5843147 89.46826466 13.3125 87 C8.22492314 85.08764841 4.79228914 81.60998429 2 77 C0.12564659 71.60490741 -0.27118148 66.90553867 -0.1953125 61.22265625 C-0.1924826 60.41130722 -0.18965271 59.59995819 -0.18673706 58.76402283 C-0.17562663 56.19669247 -0.15053971 53.62972322 -0.125 51.0625 C-0.11495836 49.31185403 -0.10583459 47.56120254 -0.09765625 45.81054688 C-0.07571734 41.54022746 -0.0412516 37.27017475 0 33 C-3.96 33 -7.92 33 -12 33 C-12 28.05 -12 23.1 -12 18 C-8.04 18 -4.08 18 0 18 C0 12.06 0 6.12 0 0 Z " fill="#161F54" transform="translate(549,714)"/>
<path d="M0 0 C3.09375 0.061875 3.09375 0.061875 6.25 0.125 C6.25 5.735 6.25 11.345 6.25 17.125 C3.0325 17.2178125 3.0325 17.2178125 -0.25 17.3125 C-6.53665608 17.75154784 -11.07827739 18.77979564 -15.75 23.125 C-17.80359902 26.20539853 -18.00738734 26.91984698 -18.06884766 30.4128418 C-18.08871735 31.27350754 -18.10858704 32.13417328 -18.12905884 33.0209198 C-18.14638565 34.40855278 -18.14638565 34.40855278 -18.1640625 35.82421875 C-18.18342865 36.77440384 -18.2027948 37.72458893 -18.2227478 38.7035675 C-18.28254912 41.7397869 -18.32893129 44.77604419 -18.375 47.8125 C-18.41317926 49.87045928 -18.45223096 51.92840258 -18.4921875 53.98632812 C-18.58989414 59.03246911 -18.66945849 64.07843885 -18.75 69.125 C-25.35 69.125 -31.95 69.125 -38.75 69.125 C-38.75 46.685 -38.75 24.245 -38.75 1.125 C-33.14 1.125 -27.53 1.125 -21.75 1.125 C-20.76 3.765 -19.77 6.405 -18.75 9.125 C-18.21890625 8.64289062 -17.6878125 8.16078125 -17.140625 7.6640625 C-16.43421875 7.03242187 -15.7278125 6.40078125 -15 5.75 C-14.30390625 5.12351562 -13.6078125 4.49703125 -12.890625 3.8515625 C-8.52318255 0.32891731 -5.63791548 -0.11275831 0 0 Z " fill="#172056" transform="translate(698.75,730.875)"/>
<path d="M0 0 C6.27 0 12.54 0 19 0 C19 22.44 19 44.88 19 68 C12.73 68 6.46 68 0 68 C0 45.56 0 23.12 0 0 Z " fill="#141D52" transform="translate(717,732)"/>
<path d="M0 0 C6.1128569 2.36848636 10.15823793 6.59274018 13.25 12.3125 C15.00155246 18.58889632 14.45179576 23.47768588 11.34375 29.10546875 C8.40585045 33.24756549 4.82195802 36.39268066 0 38 C-6.21674229 38.50748917 -11.76789413 38.7719833 -17 35 C-22.01286063 30.10793119 -24.99063617 25.73573089 -25.375 18.625 C-25.2140468 12.91589518 -23.2790705 9.24861521 -19.24609375 5.26953125 C-13.02585974 -0.19752202 -8.32589918 -0.92857773 0 0 Z " fill="#1AC3D2" transform="translate(446,381)"/>
<path d="M0 0 C5.69962772 2.19936373 9.49481549 6.11398522 13 11 C14.81472751 16.44418254 15.1751135 22.22589276 12.90625 27.58203125 C9.90056356 32.40232094 6.60186179 36.42609428 1 38 C-5.92662271 38.99361208 -11.63131297 38.70613895 -17.37890625 34.5 C-22.39939816 29.85453279 -24.15622863 24.9692558 -24.4375 18.3125 C-24.39075862 12.79033999 -23.37246872 9.71940969 -19.6875 5.625 C-13.56482807 -0.2709063 -8.34702221 -1.26137655 0 0 Z " fill="#7F46F1" transform="translate(590,381)"/>
<path d="M0 0 C5.25185678 3.20363264 9.25526046 7.11927746 11.46875 12.9296875 C12.76193456 19.41870289 11.09969358 25.46739337 7.46875 30.9296875 C2.04567383 36.2143557 -3.51933397 37.3608753 -10.9296875 37.2734375 C-16.75574709 36.50362782 -20.44790847 33.31858689 -23.96875 28.8046875 C-27.11818665 23.00972406 -27.38509777 17.40743644 -26.53125 10.9296875 C-24.30732239 5.99733376 -20.4515221 1.95270164 -15.57421875 -0.4375 C-10.29095855 -2.07399742 -5.12466061 -2.16690896 0 0 Z " fill="#65D779" transform="translate(520.53125,382.0703125)"/>
<path d="M0 0 C13.86 0 27.72 0 42 0 C42 4.62 42 9.24 42 14 C28.14 14 14.28 14 0 14 C0 9.38 0 4.76 0 0 Z " fill="#161E53" transform="translate(601,758)"/>
<path d="M0 0 C0.87527344 0.00064453 1.75054687 0.00128906 2.65234375 0.00195312 C9.10950307 0.04700307 9.10950307 0.04700307 10.25 1.1875 C10.74021999 4.34669549 11.00718112 6.15877553 10.25 9.1875 C6.45489362 13.83898431 1.46792391 17.80683775 -4.58984375 18.5234375 C-12.85213917 18.62762786 -12.85213917 18.62762786 -16.9375 16.625 C-19.38285071 13.33642491 -19.89373572 11.28396814 -19.75 7.1875 C-14.35984271 0.05346829 -8.28077984 -0.11794214 0 0 Z " fill="#EDEEF1" transform="translate(498.75,769.8125)"/>
<path d="M0 0 C3 2.5 3 2.5 5 5 C5.33 5.33 5.66 5.66 6 6 C6.38189241 10.96460138 6.15313973 14.05857534 3 18 C-1.41719208 20.73080204 -5.95708738 20.68544443 -11 20 C-13.93423195 18.20353146 -15.47205355 17.0558929 -17 14 C-17.57791538 6.9494324 -17.57791538 6.9494324 -15.25 3.125 C-10.46763115 -1.39168169 -6.22810613 -1.76518516 0 0 Z " fill="#1B2357" transform="translate(732,702)"/>
<path d="M0 0 C13.86 0 27.72 0 42 0 C42 4.62 42 9.24 42 14 C28.14 14 14.28 14 0 14 C0 9.38 0 4.76 0 0 Z M1 2 C1 5.63 1 9.26 1 13 C13.87 13 26.74 13 40 13 C40 9.37 40 5.74 40 2 C27.13 2 14.26 2 1 2 Z " fill="#272F5E" transform="translate(601,758)"/>
<path d="M0 0 C2.72797713 3.16870881 3.66652344 5.87744622 4.5625 9.9375 C5.24968768 13.00849127 5.91247001 15.79556554 7.15234375 18.69140625 C8 21 8 21 7 24 C6.2066145 21.95900065 5.4153697 19.9171691 4.625 17.875 C4.18414062 16.73804688 3.74328125 15.60109375 3.2890625 14.4296875 C-0.28884094 4.91029593 -0.28884094 4.91029593 0 0 Z " fill="#8362F3" transform="translate(340,429)"/>
<path d="M0 0 C0.33 0.66 0.66 1.32 1 2 C-3.03523352 6.81123996 -7.04467233 11.13242719 -12 15 C-12.66 14.67 -13.32 14.34 -14 14 C-13.49210938 13.57589844 -12.98421875 13.15179688 -12.4609375 12.71484375 C-7.83373646 8.77219118 -3.84408054 4.70899866 0 0 Z " fill="#2FB8E6" transform="translate(646,468)"/>
<path d="M0 0 C0 3 0 3 -1.75 5.04296875 C-2.4925 5.75066406 -3.235 6.45835937 -4 7.1875 C-4.7425 7.90292969 -5.485 8.61835937 -6.25 9.35546875 C-7.11625 10.16951172 -7.11625 10.16951172 -8 11 C-8.66 10.67 -9.32 10.34 -10 10 C-8.90033225 8.70450101 -7.79508199 7.41373929 -6.6875 6.125 C-6.07261719 5.40570312 -5.45773437 4.68640625 -4.82421875 3.9453125 C-3 2 -3 2 0 0 Z " fill="#242E5F" transform="translate(302,716)"/>
</svg>
